<svg xmlns="http://www.w3.org/2000/svg" version="1.1" xmlns:xlink="http://www.w3.org/1999/xlink" xmlns:svgjs="http://svgjs.com/svgjs" width="800px" height="800px"><svg height="800px" width="800px" version="1.1" id="SvgjsSvg1000" xmlns="http://www.w3.org/2000/svg" xmlns:xlink="http://www.w3.org/1999/xlink" viewBox="0 0 512 512" xml:space="preserve">
<g transform="translate(1 1)">
	<path style="fill:#FFE100;" d="M365.933,459.8H24.6c-9.387,0-17.067-7.68-17.067-17.067V255c0-9.387,7.68-17.067,17.067-17.067
		h341.333c9.387,0,17.067,7.68,17.067,17.067v187.733C383,452.12,375.32,459.8,365.933,459.8"></path>
	<path style="fill:#FFA800;" d="M365.933,237.933h-17.067c9.387,0,17.067,7.68,17.067,17.067v187.733
		c0,9.387-7.68,17.067-17.067,17.067h17.067c9.387,0,17.067-7.68,17.067-17.067V255C383,245.613,375.32,237.933,365.933,237.933"></path>
	<path style="fill:#FFFFFF;" d="M24.6,442.733V255c0-9.387,7.68-17.067,17.067-17.067H24.6c-9.387,0-17.067,7.68-17.067,17.067
		v187.733c0,9.387,7.68,17.067,17.067,17.067h17.067C32.28,459.8,24.6,452.12,24.6,442.733"></path>
	<path style="fill:#FFE100;" d="M475.16,255.853L383,288.28v121.173l92.16,32.427c13.653,4.267,27.307-5.12,27.307-19.627V274.627
		C502.467,260.973,488.813,250.733,475.16,255.853"></path>
	<path style="fill:#63D3FD;" d="M475.16,255.853l-6.827,2.56V439.32l6.827,2.56c13.653,4.267,27.307-5.12,27.307-19.627V274.627
		C502.467,260.973,488.813,250.733,475.16,255.853"></path>
	<path style="fill:#3DB9F9;" d="M475.16,255.853l-1.707,0.853c6.827,3.413,11.947,10.24,11.947,18.773v147.627
		c0,8.533-5.12,15.36-11.947,18.773l1.707,0.853c13.653,4.267,27.307-5.12,27.307-19.627v-148.48
		C502.467,260.973,488.813,250.733,475.16,255.853"></path>
	<path style="fill:#63D3FD;" d="M186.733,323.267h-128c-9.387,0-17.067-7.68-17.067-17.067v-17.067
		c0-9.387,7.68-17.067,17.067-17.067h128c9.387,0,17.067,7.68,17.067,17.067V306.2C203.8,315.587,196.12,323.267,186.733,323.267"></path>
	<path style="fill:#3DB9F9;" d="M186.733,272.067h-25.6c9.387,0,17.067,7.68,17.067,17.067V306.2c0,9.387-7.68,17.067-17.067,17.067
		h25.6c9.387,0,17.067-7.68,17.067-17.067v-17.067C203.8,279.747,196.12,272.067,186.733,272.067"></path>
	<g>
		<path style="fill:#FFE100;" d="M195.267,144.067c0-52.053-41.813-93.867-93.867-93.867S7.533,92.013,7.533,144.067
			s41.813,93.867,93.867,93.867S195.267,196.12,195.267,144.067"></path>
		<path style="fill:#FFE100;" d="M383,144.067c0-52.053-41.813-93.867-93.867-93.867s-93.867,41.813-93.867,93.867
			s41.813,93.867,93.867,93.867S383,196.12,383,144.067"></path>
	</g>
	<path style="fill:#FFA800;" d="M289.133,50.2c-2.56,0-5.973,0-8.533,0.853c47.787,4.267,85.333,44.373,85.333,93.013
		s-37.547,88.747-85.333,93.867c2.56,0,5.973,0,8.533,0c52.053,0,93.867-41.813,93.867-93.867S341.187,50.2,289.133,50.2"></path>
	<path style="fill:#FFFFFF;" d="M101.4,50.2c2.56,0,5.973,0,8.533,0.853C62.147,55.32,24.6,95.427,24.6,144.067
		s37.547,88.747,85.333,93.867c-2.56,0-5.973,0-8.533,0c-52.053,0-93.867-41.813-93.867-93.867S49.347,50.2,101.4,50.2"></path>
	<g>
		<path style="fill:#63D3FD;" d="M101.4,169.667c-14.507,0-25.6-11.093-25.6-25.6c0-14.507,11.093-25.6,25.6-25.6
			s25.6,11.093,25.6,25.6C127,158.573,115.907,169.667,101.4,169.667"></path>
		<path style="fill:#63D3FD;" d="M289.133,169.667c-14.507,0-25.6-11.093-25.6-25.6c0-14.507,11.093-25.6,25.6-25.6
			c14.507,0,25.6,11.093,25.6,25.6C314.733,158.573,303.64,169.667,289.133,169.667"></path>
	</g>
	<path d="M365.933,468.333H24.6c-14.507,0-25.6-11.093-25.6-25.6V255c0-14.507,11.093-25.6,25.6-25.6h341.333
		c14.507,0,25.6,11.093,25.6,25.6v187.733C391.533,457.24,380.44,468.333,365.933,468.333z M24.6,246.467
		c-5.12,0-8.533,3.413-8.533,8.533v187.733c0,5.12,3.413,8.533,8.533,8.533h341.333c5.12,0,8.533-3.413,8.533-8.533V255
		c0-5.12-3.413-8.533-8.533-8.533H24.6z"></path>
	<path d="M101.4,246.467c-56.32,0-102.4-46.08-102.4-102.4s46.08-102.4,102.4-102.4s102.4,46.08,102.4,102.4
		S157.72,246.467,101.4,246.467z M101.4,58.733c-46.933,0-85.333,38.4-85.333,85.333S54.467,229.4,101.4,229.4
		s85.333-38.4,85.333-85.333S148.333,58.733,101.4,58.733z"></path>
	<path d="M101.4,212.333L101.4,212.333c-8.533,0-16.213-1.707-23.893-4.267c-4.267-1.707-6.827-6.827-5.12-11.093
		c1.707-4.267,6.827-6.827,11.093-5.12c5.973,1.707,11.093,3.413,17.067,3.413c4.267,0,8.533,3.413,8.533,8.533
		C109.933,208.067,106.52,212.333,101.4,212.333C102.253,212.333,102.253,212.333,101.4,212.333z M140.653,197.827
		c-2.56,0-5.12-0.853-6.827-2.56c-3.413-3.413-2.56-9.387,0.853-11.947c4.267-4.267,8.533-8.533,11.093-13.653
		c2.56-4.267,7.68-5.12,11.947-3.413c4.267,2.56,5.12,7.68,3.413,11.947c-4.267,6.827-9.387,12.8-15.36,17.92
		C144.067,196.973,142.36,197.827,140.653,197.827z M49.347,182.467c-2.56,0-5.973-1.707-7.68-4.267
		c-4.267-6.827-6.827-14.507-8.533-22.187c-0.853-4.267,2.56-9.387,6.827-10.24c4.267-0.853,9.387,2.56,10.24,6.827
		c0.853,5.973,3.413,11.093,5.973,17.067c2.56,4.267,0.853,9.387-3.413,11.947C52.76,182.467,51.053,182.467,49.347,182.467z
		 M160.28,141.507c-4.267,0-7.68-2.56-8.533-6.827c-0.853-5.973-3.413-11.093-5.973-16.213c-2.56-4.267-0.853-9.387,3.413-11.947
		c4.267-2.56,9.387-0.853,11.947,3.413c4.267,6.827,6.827,14.507,8.533,22.187c0.853,4.267-2.56,9.387-6.827,10.24
		C161.133,141.507,160.28,141.507,160.28,141.507z M49.347,122.733c-1.707,0-2.56,0-4.267-0.853c-4.267-2.56-5.12-7.68-2.56-11.947
		c4.267-6.827,9.387-12.8,15.36-17.92c3.413-3.413,8.533-2.56,11.093,0.853c3.413,3.413,2.56,9.387-0.853,11.947
		c-4.267,4.267-8.533,8.533-11.093,13.653C55.32,121.027,52.76,122.733,49.347,122.733z M121.88,96.28c-0.853,0-1.707,0-2.56-0.853
		c-5.973-1.707-11.947-2.56-17.92-2.56c-5.12,0-8.533-3.413-8.533-8.533c0-5.12,3.413-8.533,8.533-8.533l0,0
		c7.68,0,15.36,1.707,23.04,4.267c4.267,1.707,6.827,6.827,5.12,11.093C127.853,94.573,125.293,96.28,121.88,96.28z"></path>
	<path d="M101.4,178.2c-18.773,0-34.133-15.36-34.133-34.133s15.36-34.133,34.133-34.133s34.133,15.36,34.133,34.133
		S120.173,178.2,101.4,178.2z M101.4,127c-9.387,0-17.067,7.68-17.067,17.067c0,9.387,7.68,17.067,17.067,17.067
		s17.067-7.68,17.067-17.067C118.467,134.68,110.787,127,101.4,127z"></path>
	<path d="M289.133,246.467c-56.32,0-102.4-46.08-102.4-102.4s46.08-102.4,102.4-102.4s102.4,46.08,102.4,102.4
		S345.453,246.467,289.133,246.467z M289.133,58.733c-46.933,0-85.333,38.4-85.333,85.333s38.4,85.333,85.333,85.333
		s85.333-38.4,85.333-85.333S336.067,58.733,289.133,58.733z"></path>
	<path d="M289.133,212.333c-7.68,0-16.213-1.707-23.04-4.267c-4.267-1.707-6.827-6.827-5.12-11.093
		c1.707-4.267,6.827-6.827,11.093-5.12c5.973,1.707,11.093,3.413,17.067,3.413c4.267,0,8.533,3.413,8.533,8.533
		C297.667,208.067,294.253,212.333,289.133,212.333C289.987,212.333,289.133,212.333,289.133,212.333z M328.387,197.827
		c-2.56,0-5.12-0.853-6.827-2.56c-3.413-3.413-2.56-9.387,0.853-11.947c4.267-4.267,8.533-8.533,11.093-13.653
		c2.56-4.267,7.68-5.12,11.947-3.413c4.267,2.56,5.12,7.68,3.413,11.947c-4.267,6.827-9.387,12.8-15.36,17.92
		C331.8,196.973,330.093,197.827,328.387,197.827z M237.08,182.467c-2.56,0-5.973-1.707-7.68-4.267
		c-4.267-6.827-6.827-14.507-8.533-22.187c-0.853-4.267,2.56-9.387,6.827-10.24c4.267-0.853,9.387,2.56,10.24,6.827
		c0.853,5.973,3.413,11.093,5.973,17.067c2.56,4.267,0.853,9.387-3.413,11.947C240.493,182.467,238.787,182.467,237.08,182.467z
		 M348.013,141.507c-4.267,0-7.68-2.56-8.533-6.827c-0.853-5.973-3.413-11.093-5.973-16.213c-2.56-4.267-0.853-9.387,3.413-11.947
		c4.267-2.56,9.387-0.853,11.947,3.413c4.267,6.827,6.827,14.507,8.533,22.187c0.853,4.267-2.56,9.387-6.827,10.24
		C348.867,141.507,348.013,141.507,348.013,141.507z M237.08,122.733c-1.707,0-2.56,0-4.267-0.853
		c-4.267-2.56-5.12-7.68-3.413-11.947c4.267-6.827,9.387-12.8,15.36-17.92c3.413-3.413,9.387-2.56,11.947,0.853
		c3.413,3.413,2.56,9.387-0.853,11.947c-4.267,4.267-8.533,8.533-11.093,13.653C243.053,121.027,240.493,122.733,237.08,122.733z
		 M309.613,96.28c-0.853,0-1.707,0-2.56-0.853c-5.973-1.707-11.947-2.56-17.92-2.56c-5.12,0-8.533-3.413-8.533-8.533
		c0-5.12,3.413-8.533,8.533-8.533v8.533V75.8l0,0c7.68,0,16.213,1.707,23.04,4.267c4.267,1.707,6.827,6.827,5.12,11.093
		C315.587,94.573,313.027,96.28,309.613,96.28z"></path>
	<path d="M289.133,178.2C270.36,178.2,255,162.84,255,144.067s15.36-34.133,34.133-34.133c18.773,0,34.133,15.36,34.133,34.133
		S307.907,178.2,289.133,178.2z M289.133,127c-9.387,0-17.067,7.68-17.067,17.067c0,9.387,7.68,17.067,17.067,17.067
		c9.387,0,17.067-7.68,17.067-17.067C306.2,134.68,298.52,127,289.133,127z"></path>
	<path d="M186.733,331.8h-128c-14.507,0-25.6-11.093-25.6-25.6v-17.067c0-14.507,11.093-25.6,25.6-25.6h128
		c14.507,0,25.6,11.093,25.6,25.6V306.2C212.333,320.707,201.24,331.8,186.733,331.8z M58.733,280.6
		c-5.12,0-8.533,3.413-8.533,8.533V306.2c0,5.12,3.413,8.533,8.533,8.533h128c5.12,0,8.533-3.413,8.533-8.533v-17.067
		c0-5.12-3.413-8.533-8.533-8.533H58.733z"></path>
	<path d="M340.333,289.133h-102.4c-5.12,0-8.533-3.413-8.533-8.533c0-5.12,3.413-8.533,8.533-8.533h102.4
		c5.12,0,8.533,3.413,8.533,8.533C348.867,285.72,345.453,289.133,340.333,289.133z"></path>
	<path d="M340.333,323.267h-102.4c-5.12,0-8.533-3.413-8.533-8.533c0-5.12,3.413-8.533,8.533-8.533h102.4
		c5.12,0,8.533,3.413,8.533,8.533C348.867,319.853,345.453,323.267,340.333,323.267z"></path>
	<path d="M481.987,451.267c-3.413,0-6.827-0.853-9.387-1.707l-92.16-32.427c-3.413-0.853-5.973-4.267-5.973-7.68V288.28
		c0-3.413,2.56-6.827,5.973-7.68l92.16-32.427l0,0c8.533-3.413,18.773-1.707,26.453,3.413c7.68,5.12,11.947,14.507,11.947,23.893
		v147.627c0,9.387-4.267,17.92-11.947,23.893C493.933,449.56,487.96,451.267,481.987,451.267z M391.533,403.48l87.04,30.72
		c3.413,0.853,7.68,0.853,11.093-1.707c3.413-2.56,5.12-5.973,5.12-9.387v-148.48c0-4.267-1.707-7.68-5.12-9.387
		c-3.413-2.56-6.827-2.56-11.093-1.707l0,0l-87.04,30.72V403.48z M475.16,255.853L475.16,255.853L475.16,255.853z"></path>
	<path d="M58.733,434.2h-51.2c-5.12,0-8.533-3.413-8.533-8.533s3.413-8.533,8.533-8.533h51.2c5.12,0,8.533,3.413,8.533,8.533
		S63.853,434.2,58.733,434.2z"></path>
	<path d="M33.133,400.067h-25.6c-5.12,0-8.533-3.413-8.533-8.533S2.413,383,7.533,383h25.6c5.12,0,8.533,3.413,8.533,8.533
		S38.253,400.067,33.133,400.067z"></path>
	<path d="M481.987,451.267c-3.413,0-6.827-0.853-9.387-1.707l-6.827-2.56c-3.413-0.853-5.973-4.267-5.973-7.68V258.413
		c0-3.413,2.56-6.827,5.973-7.68l6.827-2.56c8.533-3.413,18.773-1.707,26.453,3.413c7.68,5.12,11.947,14.507,11.947,23.893v147.627
		c0,9.387-4.267,17.92-11.947,23.893C493.933,449.56,487.96,451.267,481.987,451.267z M476.867,433.347l1.707,0.853
		c3.413,0.853,7.68,0.853,11.093-1.707c3.413-2.56,5.12-5.973,5.12-9.387v-148.48c0-4.267-1.707-7.68-5.12-9.387
		c-3.413-2.56-6.827-2.56-11.093-1.707l0,0l-1.707,0.853V433.347z M475.16,255.853L475.16,255.853L475.16,255.853z"></path>
</g>
</svg><style>@media (prefers-color-scheme: light) { :root { filter: none; } }
</style></svg>